<svg height="512" viewBox="0 0 128 128" width="512" xmlns="http://www.w3.org/2000/svg"><g><g><path d="m28.25 1.747h71.5v28.25h-71.5z" fill="#00ddc1"/><g fill="#ececf1"><path d="m43.08 7.81a1.749 1.749 0 0 0 -1.75 1.75v4.562h-2.984v-4.562a1.75 1.75 0 0 0 -3.5 0v12.625a1.75 1.75 0 0 0 3.5 0v-4.563h2.984v4.563a1.75 1.75 0 1 0 3.5 0v-12.625a1.749 1.749 0 0 0 -1.75-1.75z"/><path d="m55.161 7.81h-6.484a1.749 1.749 0 0 0 -1.75 1.75v12.625a1.75 1.75 0 0 0 1.75 1.75h6.484a1.75 1.75 0 0 0 1.75-1.75v-12.625a1.749 1.749 0 0 0 -1.75-1.75zm-1.75 12.625h-2.984v-9.125h2.984z"/><path d="m67.242 7.81h-6.484a1.75 1.75 0 1 0 0 3.5h1.492v10.875a1.75 1.75 0 1 0 3.5 0v-10.875h1.492a1.75 1.75 0 0 0 0-3.5z"/><path d="m79.323 11.31a1.75 1.75 0 0 0 0-3.5h-6.484a1.749 1.749 0 0 0 -1.75 1.75v12.625a1.75 1.75 0 0 0 1.75 1.75h6.484a1.75 1.75 0 0 0 0-3.5h-4.734v-2.813h4.734a1.75 1.75 0 0 0 0-3.5h-4.734v-2.812z"/><path d="m91.4 20.435h-4.73v-10.875a1.75 1.75 0 0 0 -3.5 0v12.625a1.75 1.75 0 0 0 1.75 1.75h6.48a1.75 1.75 0 0 0 0-3.5z"/></g><path d="m17.875 29.997h92.25v96.25h-92.25z" fill="#e1e4fb"/><path d="m47.812 102.875h32.375v23.375h-32.375z" fill="#0d70b2"/><path d="m62.25 102.875h3.5v23.375h-3.5z" fill="#0059aa"/><g fill="#c5c9f7"><g><path d="m27.875 39.997h18.375v12.509h-18.375z"/><path d="m54.812 39.997h18.375v12.509h-18.375z"/><path d="m81.75 39.997h18.375v12.509h-18.375z"/></g><g><path d="m27.875 60.177h18.375v12.509h-18.375z"/><path d="m54.812 60.177h18.375v12.509h-18.375z"/><path d="m81.75 60.177h18.375v12.509h-18.375z"/></g><g><path d="m27.875 80.358h18.375v12.509h-18.375z"/><path d="m54.812 80.358h18.375v12.509h-18.375z"/><path d="m81.75 80.358h18.375v12.509h-18.375z"/></g></g></g><g><path d="m43.08 7.81a1.749 1.749 0 0 0 -1.75 1.75v4.562h-2.984v-4.562a1.75 1.75 0 0 0 -3.5 0v12.625a1.75 1.75 0 0 0 3.5 0v-4.563h2.984v4.563a1.75 1.75 0 1 0 3.5 0v-12.625a1.749 1.749 0 0 0 -1.75-1.75z"/><path d="m55.161 7.81h-6.484a1.749 1.749 0 0 0 -1.75 1.75v12.625a1.75 1.75 0 0 0 1.75 1.75h6.484a1.75 1.75 0 0 0 1.75-1.75v-12.625a1.749 1.749 0 0 0 -1.75-1.75zm-1.75 12.625h-2.984v-9.125h2.984z"/><path d="m67.242 7.81h-6.484a1.75 1.75 0 1 0 0 3.5h1.492v10.875a1.75 1.75 0 1 0 3.5 0v-10.875h1.492a1.75 1.75 0 0 0 0-3.5z"/><path d="m79.323 11.31a1.75 1.75 0 0 0 0-3.5h-6.484a1.749 1.749 0 0 0 -1.75 1.75v12.625a1.75 1.75 0 0 0 1.75 1.75h6.484a1.75 1.75 0 0 0 0-3.5h-4.734v-2.813h4.734a1.75 1.75 0 0 0 0-3.5h-4.734v-2.812z"/><path d="m91.4 20.435h-4.73v-10.875a1.75 1.75 0 0 0 -3.5 0v12.625a1.75 1.75 0 0 0 1.75 1.75h6.48a1.75 1.75 0 0 0 0-3.5z"/><path d="m110.125 28.247h-8.625v-26.5a1.75 1.75 0 0 0 -1.75-1.747h-71.5a1.75 1.75 0 0 0 -1.75 1.75v26.5h-8.625a1.749 1.749 0 0 0 -1.75 1.75v96.25a1.75 1.75 0 0 0 1.75 1.75h29.908.029 32.375.03 29.908a1.75 1.75 0 0 0 1.75-1.75v-50.376a1.75 1.75 0 0 0 -3.5 0v48.626h-26.438v-21.625a1.75 1.75 0 0 0 -1.75-1.75h-32.375a1.751 1.751 0 0 0 -1.75 1.75v21.625h-26.437v-92.753h88.75v8.253a1.75 1.75 0 1 0 3.5 0v-10a1.749 1.749 0 0 0 -1.75-1.753zm-31.688 96.253h-12.687v-19.875h12.687zm-28.875-19.875h12.688v19.875h-12.688zm-19.562-76.378v-24.747h68v24.75z"/><path d="m110.125 52.808a1.75 1.75 0 0 0 -1.75 1.75v6.755a1.75 1.75 0 0 0 3.5 0v-6.755a1.75 1.75 0 0 0 -1.75-1.75z"/><path d="m48 40a1.749 1.749 0 0 0 -1.75-1.75h-18.375a1.749 1.749 0 0 0 -1.75 1.75v12.505a1.749 1.749 0 0 0 1.75 1.75h18.375a1.749 1.749 0 0 0 1.75-1.75zm-3.5 10.755h-14.875v-9.008h14.875z"/><path d="m74.937 40a1.749 1.749 0 0 0 -1.75-1.75h-18.375a1.75 1.75 0 0 0 -1.75 1.75v12.505a1.75 1.75 0 0 0 1.75 1.75h18.375a1.749 1.749 0 0 0 1.75-1.75zm-3.5 10.758h-14.875v-9.011h14.875z"/><path d="m101.875 40a1.749 1.749 0 0 0 -1.75-1.75h-18.375a1.749 1.749 0 0 0 -1.75 1.75v12.505a1.749 1.749 0 0 0 1.75 1.75h18.375a1.749 1.749 0 0 0 1.75-1.75zm-3.5 10.758h-14.875v-9.011h14.875z"/><path d="m48 60.177a1.75 1.75 0 0 0 -1.75-1.75h-18.375a1.75 1.75 0 0 0 -1.75 1.75v12.509a1.75 1.75 0 0 0 1.75 1.75h18.375a1.75 1.75 0 0 0 1.75-1.75zm-3.5 10.759h-14.875v-9.009h14.875z"/><path d="m74.937 60.177a1.75 1.75 0 0 0 -1.75-1.75h-18.375a1.751 1.751 0 0 0 -1.75 1.75v12.509a1.751 1.751 0 0 0 1.75 1.75h18.375a1.75 1.75 0 0 0 1.75-1.75zm-3.5 10.759h-14.875v-9.009h14.875z"/><path d="m101.875 60.177a1.75 1.75 0 0 0 -1.75-1.75h-18.375a1.75 1.75 0 0 0 -1.75 1.75v12.509a1.75 1.75 0 0 0 1.75 1.75h18.375a1.75 1.75 0 0 0 1.75-1.75zm-3.5 10.759h-14.875v-9.009h14.875z"/><path d="m34.846 91.117a1.75 1.75 0 1 0 0 3.5h11.4a1.75 1.75 0 0 0 1.754-1.75v-12.509a1.75 1.75 0 0 0 -1.75-1.75h-18.375a1.75 1.75 0 0 0 -1.75 1.75v6.254a1.75 1.75 0 0 0 3.5 0v-4.5h14.875v9.009z"/><path d="m73.187 78.608h-18.375a1.751 1.751 0 0 0 -1.75 1.75v12.509a1.751 1.751 0 0 0 1.75 1.75h18.375a1.75 1.75 0 0 0 1.75-1.75v-12.509a1.75 1.75 0 0 0 -1.75-1.75zm-1.75 12.509h-14.875v-9.009h14.875z"/><path d="m100.125 78.608h-18.375a1.75 1.75 0 0 0 -1.75 1.75v12.509a1.75 1.75 0 0 0 1.75 1.75h18.375a1.75 1.75 0 0 0 1.75-1.75v-12.509a1.75 1.75 0 0 0 -1.75-1.75zm-1.75 12.509h-14.875v-9.009h14.875z"/></g></g></svg>